<svg width="32" height="30" viewBox="0 0 32 30" fill="none" xmlns="http://www.w3.org/2000/svg">
<path d="M12.7827 11.4732H2.07158C1.84132 11.4732 1.61346 11.4255 1.40086 11.3329C1.18826 11.2402 0.995225 11.1045 0.832898 10.9334C0.67057 10.7624 0.541924 10.5594 0.454769 10.3361C0.367614 10.1129 0.323657 9.87381 0.325044 9.63262C0.323657 9.39144 0.367614 9.15235 0.454769 8.92911C0.541924 8.70587 0.67057 8.50285 0.832898 8.3318C0.995225 8.16074 1.18826 8.02499 1.40086 7.93236C1.61346 7.83972 1.84132 7.79206 2.07158 7.79207H12.7827C13.3028 7.79207 13.8017 7.57643 14.1704 7.1923C14.5391 6.80817 14.7477 6.28678 14.7504 5.74209C14.7504 5.19548 14.543 4.67129 14.174 4.28478C13.805 3.89827 13.3046 3.68111 12.7827 3.68111H9.54219C9.07616 3.68111 8.62918 3.48719 8.29966 3.14202C7.97013 2.79685 7.78487 2.32872 7.78487 1.84057C7.78487 1.35243 7.97013 0.884263 8.29966 0.539091C8.62918 0.19392 9.07616 0 9.54219 0H12.7827C14.2348 0.00291937 15.6266 0.609184 16.6524 1.68572C17.6782 2.76226 18.2543 4.2211 18.2543 5.74209C18.2515 7.26117 17.674 8.7172 16.6485 9.79136C15.6231 10.8655 14.233 11.4703 12.7827 11.4732Z" fill="#49BFFF"/>
<path d="M25.6196 16.7744H2.07158C1.84132 16.7744 1.61346 16.7267 1.40086 16.634C1.18826 16.5414 0.995225 16.4057 0.832898 16.2346C0.67057 16.0635 0.541924 15.8606 0.454769 15.6373C0.367614 15.4141 0.323657 15.175 0.325044 14.9338C0.323657 14.6926 0.367614 14.4535 0.454769 14.2303C0.541924 14.007 0.67057 13.804 0.832898 13.633C0.995225 13.4619 1.18826 13.3262 1.40086 13.2336C1.61346 13.1409 1.84132 13.0932 2.07158 13.0932H25.6196C26.201 13.0933 26.7585 12.8521 27.1706 12.4225C27.5827 11.9929 27.8157 11.4098 27.8185 10.8008C27.8157 10.1918 27.5827 9.60875 27.1706 9.17915C26.7585 8.74955 26.201 8.50837 25.6196 8.50838H22.6102C22.1442 8.50838 21.6972 8.31446 21.3677 7.96929C21.0382 7.62412 20.8532 7.15595 20.8532 6.66781C20.8532 6.4261 20.8984 6.18678 20.9867 5.96347C21.0751 5.74017 21.2045 5.53727 21.3677 5.36636C21.5309 5.19545 21.7245 5.05985 21.9377 4.96736C22.1509 4.87486 22.3795 4.82727 22.6102 4.82727H25.672C26.4209 4.82727 27.1626 4.98177 27.8545 5.28197C28.5464 5.58217 29.175 6.02217 29.7045 6.57686C30.2341 7.13156 30.6543 7.79009 30.9409 8.51484C31.2275 9.23958 31.375 10.0164 31.375 10.8008C31.375 11.5899 31.2256 12.3712 30.9357 13.0996C30.6459 13.8279 30.2212 14.4889 29.686 15.0443C29.1509 15.5998 28.516 16.0386 27.818 16.3356C27.12 16.6325 26.3729 16.7816 25.6196 16.7744V16.7744Z" fill="#49BFFF"/>
<path d="M16.1183 30H11.6676C11.2016 30 10.7546 29.8061 10.4251 29.4609C10.0956 29.1157 9.9103 28.6476 9.9103 28.1595C9.9103 27.9183 9.95596 27.6795 10.0444 27.4568C10.1328 27.2341 10.2623 27.0319 10.4256 26.8619C10.5889 26.6918 10.7828 26.5573 10.9959 26.466C11.209 26.3747 11.4374 26.3285 11.6676 26.3299H16.1183C16.6551 26.327 17.1688 26.1016 17.5474 25.703C17.9259 25.3044 18.1385 24.765 18.1385 24.2028C18.1385 23.6416 17.9257 23.1033 17.5469 22.7065C17.168 22.3097 16.6541 22.0867 16.1183 22.0867H2.07158C1.60834 22.0867 1.16405 21.894 0.836494 21.5509C0.508938 21.2078 0.325044 20.7424 0.325044 20.2572C0.323657 20.016 0.367614 19.7769 0.454769 19.5537C0.541924 19.3304 0.67057 19.1274 0.832898 18.9564C0.995225 18.7853 1.18826 18.6496 1.40086 18.5569C1.61346 18.4643 1.84132 18.4166 2.07158 18.4166H16.1183C17.5844 18.4166 18.9905 19.0259 20.0281 20.1107C21.0657 21.1955 21.6501 22.6672 21.6528 24.2028C21.6501 25.7394 21.0659 27.2123 20.0286 28.2988C18.9913 29.3854 17.5853 29.9971 16.1183 30Z" fill="#49BFFF"/>
</svg>
