<svg width="37" height="35" viewBox="0 0 37 35" fill="none" xmlns="http://www.w3.org/2000/svg">
<path d="M31.6894 13.4782L25.2649 14.5382L25.0996 14.2219L29.9066 10.0026C30.0438 9.88309 30.1292 9.7159 30.1457 9.53389C30.1622 9.35187 30.1088 9.16816 29.9959 9.01877C29.8808 8.86969 29.7135 8.76773 29.5283 8.73372C29.3431 8.69971 29.154 8.73622 28.9996 8.8358L23.5206 12.1872C23.403 12.0809 23.2823 11.9631 23.1681 11.8683L25.8601 6.08074C25.9468 5.92349 25.9668 5.73731 25.9161 5.56134C25.8655 5.38538 25.7482 5.2334 25.5886 5.13758C25.4238 5.04682 25.2318 5.02111 25.0526 5.06579C24.8735 5.11047 24.721 5.22212 24.627 5.37742L20.9931 10.6109L20.6506 10.4991L20.9084 4.06125C20.9151 3.88094 20.8529 3.7025 20.7341 3.56103C20.6152 3.41955 20.4482 3.32531 20.2661 3.29685C20.0831 3.2644 19.8966 3.3019 19.7451 3.40159C19.5937 3.50129 19.4887 3.65561 19.4519 3.83279L18.1169 10.1078L17.5642 10.0854L15.2485 3.98128C15.1833 3.80897 15.055 3.66514 14.8897 3.57842C14.7244 3.4917 14.5339 3.4685 14.3563 3.51344C14.1798 3.55961 14.0291 3.66885 13.9329 3.82026C13.8367 3.97166 13.802 4.15453 13.8352 4.33377L15.1082 10.698L14.7891 10.8392L10.3449 5.96865C10.2176 5.83217 10.045 5.74548 9.86027 5.72548C9.67555 5.70549 9.49218 5.75357 9.3456 5.8604C9.20041 5.96826 9.10347 6.12737 9.07435 6.30599C9.04523 6.4846 9.08596 6.66962 9.18836 6.82421L12.7752 12.3401L12.4624 12.677L6.50423 9.83599C6.33886 9.74813 6.1481 9.72397 5.96978 9.76845C5.79146 9.81292 5.63895 9.9227 5.54293 10.0758C5.4562 10.233 5.436 10.4193 5.48665 10.5952C5.5373 10.7712 5.65485 10.9231 5.81443 11.0189L11.2661 14.7752C11.2202 14.8845 11.1818 14.997 11.1518 15.112L4.60826 14.636C4.42249 14.6271 4.24202 14.6855 4.10112 14.8002C3.96022 14.9149 3.86866 15.0778 3.84373 15.2581C3.82088 15.4381 3.8683 15.6222 3.97631 15.7735C4.08432 15.9248 4.24499 16.0323 4.42637 16.0744L10.8477 17.5917C10.8429 17.7499 10.8511 17.9087 10.8725 18.0664L4.7396 20.1384C4.56806 20.2023 4.42807 20.3266 4.34638 20.4878C4.26468 20.649 4.24686 20.8359 4.29609 21.0134C4.34871 21.1887 4.46449 21.3408 4.62149 21.4404C4.77849 21.54 4.96573 21.5802 5.14684 21.5532L11.5711 20.4933L11.74 20.821L6.93269 25.0404C6.79319 25.1557 6.7068 25.3215 6.69167 25.5025C6.67654 25.6836 6.73383 25.8656 6.85165 26.0098C6.96441 26.159 7.12917 26.2622 7.31253 26.2989C7.49589 26.3355 7.68419 26.3028 7.83965 26.2072L13.3157 22.8443C13.4293 22.958 13.551 23.0636 13.6798 23.1603L10.9761 28.9507C10.8922 29.1107 10.8737 29.2981 10.9246 29.4751C10.9756 29.6522 11.0923 29.8059 11.251 29.9054C11.4168 29.9905 11.607 30.0131 11.7845 29.9688C11.9621 29.9245 12.1143 29.8165 12.2123 29.6656L15.8428 24.4206L16.1887 24.5439L15.9279 30.9702C15.921 31.1522 15.9833 31.3325 16.1026 31.4759C16.2219 31.6193 16.3895 31.7157 16.5732 31.7462C16.7569 31.7745 16.9424 31.7338 17.0927 31.6324C17.2431 31.5309 17.3471 31.376 17.3841 31.1987L18.7191 24.9237C18.8792 24.9284 19.0389 24.9216 19.1972 24.9031L21.5132 31.0071C21.5786 31.1806 21.7065 31.3258 21.8721 31.4145C22.0377 31.5032 22.2289 31.5288 22.4084 31.4865C22.5882 31.4421 22.7417 31.3314 22.838 31.1769C22.9342 31.0223 22.9659 30.8356 22.9265 30.6546L21.6532 24.2905L21.9726 24.1492L26.4165 29.0198C26.5423 29.1587 26.7153 29.2471 26.9009 29.2672C27.0864 29.2873 27.2706 29.2375 27.4161 29.128C27.5637 29.0219 27.6623 28.8627 27.6916 28.6833C27.7208 28.5039 27.6786 28.318 27.5734 28.1642L23.9898 22.6598L24.2993 22.3114L30.2605 25.164C30.4259 25.2518 30.6169 25.2759 30.7952 25.2315C30.9736 25.187 31.1261 25.0772 31.2221 24.9241C31.3061 24.7641 31.3243 24.5768 31.2733 24.3997C31.2224 24.2227 31.106 24.069 30.9473 23.9695L25.5072 20.2103L25.613 19.888L32.1648 20.3496C32.3502 20.3639 32.5319 20.3076 32.6721 20.1923C32.8122 20.077 32.9002 19.9116 32.9177 19.7303C32.9406 19.5503 32.8934 19.3662 32.7854 19.2149C32.6774 19.0636 32.5167 18.9561 32.3353 18.914L25.9289 17.4053C25.8859 17.2557 25.9124 17.0888 25.8893 16.922L32.0221 14.8499C32.1934 14.789 32.3338 14.6672 32.4162 14.5078C32.4987 14.3484 32.5175 14.1628 32.4689 13.9865C32.4109 13.8311 32.303 13.6972 32.1622 13.6053C32.0213 13.5135 31.8553 13.4688 31.6894 13.4782ZM19.4022 20.7837C18.5359 20.9966 17.608 20.8607 16.8211 20.4057C16.0342 19.9507 15.4521 19.2135 15.2017 18.355C14.9541 17.4947 15.0607 16.5839 15.4982 15.8228C15.9358 15.0617 16.6684 14.5127 17.5348 14.2966C18.4012 14.0805 19.3306 14.2149 20.1183 14.6704C20.9061 15.1259 21.4877 15.8651 21.7353 16.7253C21.9829 17.5856 21.8763 18.4964 21.4388 19.2575C21.0012 20.0186 20.2686 20.5676 19.4022 20.7837Z" fill="#AA5BFF"/>
</svg>
