<svg width="42" height="35" viewBox="0 0 42 35" fill="none" xmlns="http://www.w3.org/2000/svg">
<path d="M9.36937 35C7.05233 34.9965 4.82458 33.9896 3.14454 32.1863C1.4645 30.383 0.459972 27.9205 0.337651 25.3056C0.215331 22.6907 0.984526 20.1223 2.48696 18.1288C3.98939 16.1354 6.11077 14.8686 8.41458 14.589C7.73622 11.5826 8.14243 8.39481 9.54383 5.72687C10.9452 3.05893 13.227 1.1294 15.8873 0.362776C18.5475 -0.403853 21.3683 0.0552083 23.729 1.63897C26.0898 3.22274 27.7971 5.80147 28.4755 8.80788C30.0576 8.55892 31.6681 8.68052 33.2069 9.16512C34.7456 9.64971 36.1797 10.4869 37.4199 11.6247C38.6601 12.7625 39.6798 14.1765 40.4157 15.7787C41.1517 17.381 41.588 19.1372 41.6976 20.9382C41.8072 22.7392 41.5877 24.5464 41.0528 26.2475C40.5179 27.9485 39.679 29.5069 38.5883 30.8259C37.4977 32.1448 36.1785 33.196 34.713 33.9141C33.2474 34.6322 31.6668 35.0018 30.0694 35H9.36937Z" fill="#296399"/>
</svg>
